#!OML:ASF X:\für Bonn\!DataBase\2005_08_10_Bjorn_Final\c3d\bjorn.ASF
:FULLY-SPECIFIED
:DEGREES
173
root 1.83601 18.6006 2.74349 -181.576 9.20101 -175.831
lowerback -2.4934 0.554249 6.02591
upperback 11.6679 1.26317 1.94282
thorax 14.2559 1.66369 -0.885366
lowerneck 1.50615 1.78028 1.30167
upperneck 12.5973 4.18549 -7.63647
head 4.10831 2.21182 -2.6573
rclavicle -2.50469e-014 -6.36111e-015
rhumerus -20.3269 -3.91588 -82.3429
rradius 39.8346
rwrist -0.101125
rhand -7.48426 10.8026
rfingers 7.12502
rthumb 18.405 -18.3467
lclavicle -2.50469e-014 -6.36111e-015
lhumerus -43.3826 -21.3276 90.6657
lradius 68.5227
lwrist -16.4863
lhand -10.653 0.482635
lfingers 7.12502
lthumb 15.3547 29.8925
rfemur -17.1034 -24.8557 23.0396
rtibia 42.716
rfoot 0.786878 44.4714
rtoes 18.1917
lfemur -7.40963 3.82882 -10.1893
ltibia 51.2513
lfoot -23.7999 7.5325
ltoes -19.1348
174
root 1.83267 18.5812 2.76478 -181.497 9.37545 -175.448
lowerback -2.62696 0.695397 5.95749
upperback 11.6466 1.44707 1.87079
thorax 14.3288 1.74328 -0.896769
lowerneck 1.47003 1.67425 1.41819
upperneck 12.5796 3.9879 -7.39501
head 4.09167 2.12009 -2.60061
rclavicle 1.6201e-014 -3.57812e-015
rhumerus -20.0224 -3.83128 -82.2628
rradius 39.6033
rwrist -0.0824025
rhand -7.38007 10.8388
rfingers 7.12502
rthumb 18.5053 -18.3009
lclavicle 1.6201e-014 -3.57812e-015
lhumerus -43.3779 -19.84 90.7056
lradius 68.0615
lwrist -18.9183
lhand -12.8626 0.327093
lfingers 7.12502
lthumb 13.2256 29.8875
rfemur -17.3287 -25.2071 23.4478
rtibia 42.9285
rfoot 1.59297 44.8996
rtoes 18.994
lfemur -6.9112 3.94362 -9.73166
ltibia 50.6911
lfoot -23.7335 7.78895
ltoes -19.6282
175
root 1.82779 18.5633 2.79093 -181.399 9.50765 -175.107
lowerback -2.73846 0.828314 5.86278
upperback 11.6218 1.6256 1.79206
thorax 14.382 1.81753 -0.90232
lowerneck 1.41541 1.56343 1.52048
upperneck 12.5381 3.7833 -7.17368
head 4.07047 2.023 -2.54837
rclavicle 1.20265e-014 -1.78906e-014
rhumerus -19.7492 -3.77204 -82.2027
rradius 39.4236
rwrist -0.171415
rhand -7.3241 10.8241
rfingers 7.12502
rthumb 18.5591 -18.3105
lclavicle 1.20265e-014 -1.78906e-014
lhumerus -43.3061 -18.4287 90.7208
lradius 67.6141
lwrist -21.0066
lhand -15.1091 0.257759
lfingers 7.12502
lthumb 11.0595 29.9464
rfemur -17.6026 -25.4809 23.8464
rtibia 43.1374
rfoot 2.24405 45.2222
rtoes 19.5993
lfemur -6.47596 4.05948 -9.33107
ltibia 50.1275
lfoot -23.7368 7.90919
ltoes -19.7674
176
root 1.82054 18.5474 2.81993 -181.312 9.61686 -174.794
lowerback -2.79882 0.963351 5.79562
upperback 11.5992 1.81418 1.68291
thorax 14.4084 1.90258 -0.956518
lowerneck 1.34697 1.45574 1.64365
upperneck 12.4853 3.57618 -6.92804
head 4.04789 1.92523 -2.49161
rclavicle -3.42904e-014 -1.51076e-014
rhumerus -19.5418 -3.79442 -82.1895
rradius 39.3326
rwrist -0.349638
rhand -7.29169 10.7355
rfingers 7.12502
rthumb 18.5903 -18.3962
lclavicle -3.42904e-014 -1.51076e-014
lhumerus -43.1811 -17.1179 90.6875
lradius 67.2113
lwrist -22.6462
lhand -17.2293 0.176766
lfingers 7.12502
lthumb 9.01404 29.9642
rfemur -17.8614 -25.6647 24.2161
rtibia 43.3224
rfoot 2.77967 45.4446
rtoes 20.0889
lfemur -6.06418 4.15835 -8.99034
ltibia 49.5587
lfoot -23.8209 8.00407
ltoes -19.5055
177
root 1.80919 18.5329 2.85165 -181.23 9.68671 -174.481
lowerback -2.79851 1.07781 5.75603
upperback 11.5596 1.97564 1.58596
thorax 14.3745 1.97599 -1.02004
lowerneck 1.27698 1.34897 1.72673
upperneck 12.4671 3.38049 -6.68836
head 4.03839 1.83274 -2.42963
rclavicle -2.57426e-014 1.81888e-014
rhumerus -19.3971 -3.74398 -82.1767
rradius 39.2781
rwrist -0.68621
rhand -7.31616 10.5789
rfingers 7.12502
rthumb 18.5667 -18.555
lclavicle -2.57426e-014 1.81888e-014
lhumerus -43.0356 -15.7906 90.6625
lradius 66.8633
lwrist -23.8488
lhand -19.1493 -0.015993
lfingers 7.12502
lthumb 7.16106 29.8429
rfemur -18.1254 -25.8521 24.589
rtibia 43.4835
rfoot 3.22954 45.626
rtoes 20.4418
lfemur -5.69598 4.23233 -8.6703
ltibia 48.9904
lfoot -23.9682 8.05754
ltoes -19.1003
178
root 1.79425 18.5206 2.88448 -181.153 9.75062 -174.169
lowerback -2.7885 1.18482 5.76986
upperback 11.5469 2.12954 1.47975
thorax 14.3706 2.05632 -1.12262
lowerneck 1.13729 1.25092 1.75994
upperneck 12.453 3.19093 -6.4164
head 4.04251 1.73956 -2.34717
rclavicle 1.64494e-014 1.17283e-014
rhumerus -19.2258 -3.73345 -82.1904
rradius 39.2392
rwrist -1.05454
rhand -7.40262 10.3776
rfingers 7.12502
rthumb 18.4836 -18.7642
lclavicle 1.64494e-014 1.17283e-014
lhumerus -42.8195 -14.5435 90.6619
lradius 66.5768
lwrist -24.6431
lhand -20.9151 -0.118781
lfingers 7.12502
lthumb 5.45633 29.791
rfemur -18.3743 -25.9973 24.9525
rtibia 43.6113
rfoot 3.66148 45.7625
rtoes 20.8128
lfemur -5.3583 4.32719 -8.37595
ltibia 48.4225
lfoot -24.1728 7.99374
ltoes -18.5929
179
root 1.77628 18.5102 2.92061 -181.09 9.75391 -173.87
lowerback -2.70484 1.26912 5.79101
upperback 11.5147 2.25693 1.37162
thorax 14.2949 2.12359 -1.24021
lowerneck 1.02587 1.15916 1.80719
upperneck 12.4527 3.01455 -6.14665
head 4.04784 1.65541 -2.26817
rclavicle 1.5586e-014 -3.44146e-015
rhumerus -19.168 -3.75618 -82.2275
rradius 39.3176
rwrist -1.49291
rhand -7.51623 10.1434
rfingers 7.12502
rthumb 18.3743 -19.0088
lclavicle 1.5586e-014 -3.44146e-015
lhumerus -42.5944 -13.3058 90.64
lradius 66.3566
lwrist -25.4123
lhand -22.2969 -0.191616
lfingers 7.12502
lthumb 4.1221 29.7482
rfemur -18.6126 -26.1486 25.3004
rtibia 43.7123
rfoot 4.0264 45.8253
rtoes 21.0402
lfemur -5.06687 4.38699 -8.10561
ltibia 47.862
lfoot -24.4182 7.72874
ltoes -17.8633
180
root 1.75683 18.5016 2.95929 -181.01 9.72537 -173.587
lowerback -2.60343 1.33695 5.79995
upperback 11.4723 2.36343 1.25829
thorax 14.194 2.17885 -1.36172
lowerneck 0.885676 1.06887 1.88096
upperneck 12.4785 2.84752 -5.91503
head 4.07086 1.57598 -2.20735
rclavicle 1.12562e-014 -2.45499e-014
rhumerus -19.2317 -3.75092 -82.2927
rradius 39.6037
rwrist -1.96888
rhand -7.67325 9.81841
rfingers 7.12502
rthumb 18.2232 -19.348
lclavicle 1.12562e-014 -2.45499e-014
lhumerus -42.3443 -12.1539 90.6268
lradius 66.1736
lwrist -25.7424
lhand -23.4288 -0.326556
lfingers 7.12502
lthumb 3.029 29.6317
rfemur -18.8666 -26.1698 25.6545
rtibia 43.7846
rfoot 4.19816 45.7788
rtoes 21.0936
lfemur -4.85386 4.44841 -7.86489
ltibia 47.3077
lfoot -24.6773 7.42795
ltoes -17.2388
